<svg xmlns="http://www.w3.org/2000/svg" width="500" height="500" viewBox="0 0 500 500" version="1.1"><path d="" stroke="none" fill="#7c34e4" fill-rule="evenodd"/><path d="M 183.288 133.836 L 117.077 172.500 117.059 250 L 117.041 327.500 182.445 365.725 C 218.417 386.748, 248.324 404.073, 248.905 404.225 C 249.486 404.376, 279.657 387.175, 315.951 366 L 381.939 327.500 381.955 250 L 381.970 172.500 321.307 137 C 287.943 117.475, 258.137 100.076, 255.072 98.336 L 249.500 95.172 183.288 133.836 M 240.764 205.518 L 210.028 236.536 225.493 252.018 L 240.957 267.500 234.470 295.475 C 230.903 310.862, 228.106 323.818, 228.256 324.267 C 228.405 324.716, 242.098 311.189, 258.684 294.208 L 288.841 263.333 273.514 247.917 L 258.186 232.500 264.995 203.500 C 268.740 187.550, 271.735 174.500, 271.652 174.500 C 271.568 174.500, 257.669 188.458, 240.764 205.518" stroke="none" fill="#7c2ce4" fill-rule="evenodd"/></svg>